<svg width="89" height="29" viewBox="0 0 89 29" fill="none" xmlns="http://www.w3.org/2000/svg">
<path d="M3.464 25.3V3.448L0.476 3.124V0.711999H11.492V3.124L8.54 3.448V13.024H20.204V3.412L17.252 3.124V0.711999H28.232V3.124L25.244 3.448V25.3L28.412 25.948V28H17.072V25.948L20.204 25.3V15.832H8.54V25.3L11.672 25.948V28H0.512V25.948L3.464 25.3ZM41.5731 7.768C43.8531 7.768 45.6291 8.404 46.9011 9.676C48.1731 10.948 48.8691 12.76 48.9891 15.112C49.0131 15.928 48.9771 16.684 48.8811 17.38C48.8091 18.076 48.7611 18.508 48.7371 18.676H36.2451C36.3411 20.812 36.9051 22.468 37.9371 23.644C38.9931 24.796 40.4811 25.372 42.4011 25.372C43.2651 25.372 44.1771 25.288 45.1371 25.12C46.1211 24.928 46.9611 24.664 47.6571 24.328L48.4851 26.2C47.6691 26.896 46.5291 27.448 45.0651 27.856C43.6011 28.264 42.1611 28.468 40.7451 28.468C37.6731 28.468 35.2971 27.58 33.6171 25.804C31.9611 24.028 31.1331 21.58 31.1331 18.46C31.1331 16.396 31.5771 14.56 32.4651 12.952C33.3531 11.32 34.5891 10.048 36.1731 9.136C37.7571 8.224 39.5571 7.768 41.5731 7.768ZM40.6011 10.036C39.3771 10.036 38.3811 10.564 37.6131 11.62C36.8451 12.652 36.3891 14.14 36.2451 16.084H43.9131C43.9611 15.508 43.9851 15.064 43.9851 14.752C43.9851 13.384 43.7211 12.376 43.1931 11.728C42.8091 10.6 41.9451 10.036 40.6011 10.036ZM54.9294 25.552V12.916L52.4814 11.296V9.568L58.2054 7.84L59.2854 8.2V11.332C59.6214 10.468 60.3534 9.676 61.4814 8.956C62.6334 8.236 63.7014 7.876 64.6854 7.876C65.6214 7.876 66.2214 7.924 66.4854 8.02V12.844C66.1254 12.628 65.6574 12.448 65.0814 12.304C64.5054 12.16 63.9294 12.088 63.3534 12.088C61.9854 12.088 60.8574 12.376 59.9694 12.952V25.444L64.4334 25.984V28H52.4814V25.984L54.9294 25.552ZM78.8663 7.732C81.9383 7.708 84.2903 8.596 85.9223 10.396C87.5543 12.196 88.3583 14.656 88.3343 17.776C88.3343 19.888 87.9023 21.76 87.0383 23.392C86.1743 25 84.9983 26.248 83.5103 27.136C82.0223 28 80.3303 28.432 78.4343 28.432C75.2903 28.432 72.8903 27.496 71.2343 25.624C69.6023 23.728 68.7863 21.232 68.7863 18.136C68.7863 16.024 69.2183 14.2 70.0823 12.664C70.9703 11.104 72.1703 9.904 73.6823 9.064C75.2183 8.224 76.9463 7.78 78.8663 7.732ZM78.6143 10.072C77.0063 10.072 75.8543 10.732 75.1583 12.052C74.4863 13.372 74.1503 15.22 74.1503 17.596C74.1503 19.876 74.5343 21.856 75.3023 23.536C76.0703 25.216 77.1863 26.056 78.6503 26.056C80.2823 26.056 81.4223 25.36 82.0703 23.968C82.7183 22.552 83.0423 20.572 83.0423 18.028C83.0423 15.676 82.6823 13.768 81.9623 12.304C81.2423 10.816 80.1263 10.072 78.6143 10.072Z" fill="#219653"/>
</svg>
